# xmcd
#
# Track frame offsets: 
#        150
#        13751
#        35418
#        48441
#        61122
#        76210
#        87689
#        108356
#        124158
#        143868
#        154476
#        163003
#        173017
#        181782
#        200298
#        211315
#        224070
#        243612
#        252950
#        265717
#        288727
#        299401
#
# Disc length: 4183 seconds
#
# Revision: 0
# Processed by: cddbd v1.5.2PL0 Copyright (c) Steve Scherf et al.
# Submitted via: ExactAudioCopyFreeDBPlugin 1.0
#
DISCID=4d105516
DTITLE=Various Artist - Bo Diddley is a Songwriter
DYEAR=1900
DGENRE=Blues
TTITLE0=Bo Diddley - I'm a man
TTITLE1=Moe Tucker - Crackin' up
TTITLE2=Little Walter - Roller Coaster
TTITLE3=New York Dolls - Pills
TTITLE4=Tinsley Ellis and The Heartfixers - Hong Kong Mississippi
TTITLE5=Bo Diddley - I'm looking for a woman
TTITLE6=Koko Taylor - I'm a woman
TTITLE7=John Hammond - Oh Yea
TTITLE8=George Thorogood and The Destroyers - Ride on Josephine
TTITLE9=Bo Diddley - Deed and Deed I do
TTITLE10=Bo Diddley - Bo Diddley's a Gun Slinger
TTITLE11=C.C Adcock - Bo's Bounce
TTITLE12=Cub Koda - Mumblin' Guitar
TTITLE13=Slo Leak - You don't love me
TTITLE14=Bo Diddley - Aztec
TTITLE15=Bo Diddley - Ohh Baby
TTITLE16=George Thorogood and The Destroyers - Who do you love
TTITLE17=Johnny Winter - Road Runner
TTITLE18=Bo Diddley - Dearest Darling
TTITLE19=Moe Tucker - Bo Diddley
TTITLE20=Bo Diddley - Mona, ( I need you baby)
TTITLE21=Bo Diddley - Down Home Special
EXTD=
EXTT0=
EXTT1=
EXTT2=
EXTT3=
EXTT4=
EXTT5=
EXTT6=
EXTT7=
EXTT8=
EXTT9=
EXTT10=
EXTT11=
EXTT12=
EXTT13=
EXTT14=
EXTT15=
EXTT16=
EXTT17=
EXTT18=
EXTT19=
EXTT20=
EXTT21=
PLAYORDER=
